<?xml version="1.0" encoding="UTF-8" standalone="no"?>
<svg
   version="1.1"
   id="Layer_1"
   viewBox="0 0 512 512"
   xml:space="preserve"
   xmlns="http://www.w3.org/2000/svg">
<path
   style="fill:#FF9811;"
   d="M317.124,371.818c-10.587-2.312-18.269-11.87-18.269-22.727c0-8.336,4.514-16.087,11.778-20.231  l8.809-5.021v-52.175c0-40.718-33.128-73.846-73.847-73.846h-34.013c-40.719,0-73.847,33.128-73.847,73.846v52.175l8.809,5.021  c7.266,4.144,11.778,11.895,11.778,20.231c0,10.857-7.683,20.415-18.269,22.727l-13.731,2.998v53.752  c0,46.004,37.428,83.433,83.433,83.433h37.666c46.004,0,83.433-37.428,83.433-83.433v-53.751L317.124,371.818z" />
<path
   style="fill:#BF720D;"
   d="M317.124,371.818c-10.587-2.312-18.269-11.87-18.269-22.727c0-8.336,4.514-16.087,11.778-20.231  l8.809-5.021v-52.175c0-40.718-33.128-73.846-73.847-73.846h-16.873V512h18.698c46.004,0,83.433-37.428,83.433-83.433v-53.751  L317.124,371.818z" />
<g>
    <polygon
   style="fill:#50412E;"
   points="257.68,0 199.498,0 199.498,81.455 211.134,81.455 211.134,290.909 246.043,290.909    246.043,81.455 257.68,81.455  " />
    <rect
   x="211.132"
   y="331.636"
   style="fill:#50412E;"
   width="34.909"
   height="34.909" />
    <path
   style="fill:#50412E;"
   d="M211.134,407.273v62.305c-6.928-19.283-25.427-33.173-47.017-33.173h-37.414   C130.668,478.747,166.396,512,209.756,512h1.379h1.343h33.566V407.273H211.134z" />
</g>
</svg>
